 http://img215.imageshack.us/img215/4756/1078597big.jpg

Country.......: USA
Genre.........: Horror, Thriller, Action
Date release..: 01.04.2010 [World]
Director......: Juan Carlos Vargas
Writers.......: Juan Carlos Vargas, John Azpilicueta
Duration......: 87 min.
More..........: http://www.imdb.com/title/tt1078597
Triler........: http://vimeo.com/23697612

Pilot :
Ten actors audition on a reality show for a million dollars. All they have to do is survive three killers, and each other - streaming live over the Internet. 

Cats :
Danny Vasquez   	 ...  	David
Nicole Warner 	... 	Cindy
Meredith Grau 	... 	Emily
Daniel Fanaberia 	... 	Michael
Pablo Hernandez 	... 	Jacob
Mafe Guarin Mcallister 	... 	Jessica
Olivia Briggs 	... 	Tabitha
Jay R. Martinez 	... 	Joe
Sarah Rich 	... 	Faith
Matt Azpilicueta 	... 	Zach
Jessica Almonte 	... 	Nancy
Robert Amjarv 	... 	Wolfboy
Simon Anthony 	... 	Auditioner 5
John Azpilicueta 	... 	Auditioner 3
April Blossom 	... 	Betty 

Data Technical :
!!! SAMPLE !!!
Audio.....: English
Subtitles.: None
Format                           : AVI
Format/Info                      : Audio Video Interleave
File size                        : 1.20 GiB
Duration                         : 1h 27mn
Overall bit rate                 : 1 964 Kbps
Writing library                  : VirtualDub build 32817/release
Video
ID                               : 0
Format                           : MPEG-4 Visual
Format profile                   : Advanced Simple@L5
Format settings, BVOP            : Yes
Format settings, QPel            : No
Format settings, GMC             : No warppoints
Format settings, Matrix          : Custom
Codec ID                         : XVID
Codec ID/Hint                    : XviD
Duration                         : 1h 27mn
Bit rate                         : 1 571 Kbps
Width                            : 720 pixels
Height                           : 304 pixels
Display aspect ratio             : 2.35:1
Frame rate                       : 23.976 fps
Color space                      : YUV
Chroma subsampling               : 4:2:0
Bit depth                        : 8 bits
Scan type                        : Progressive
Bits/(Pixel*Frame)               : 0.299
Stream size                      : 980 MiB (80%)
Writing library                  : XviD 1.2.1 (UTC 2008-12-04)
Audio
ID                               : 1
Format                           : AC-3
Format/Info                      : Audio Coding 3
Mode extension                   : CM (complete main)
Codec ID                         : 2000
Duration                         : 1h 27mn
Bit rate mode                    : Constant
Bit rate                         : 384 Kbps
Channel(s)                       : 6 channels
Channel positions                : Front: L C R, Side: L R, LFE
Sampling rate                    : 48.0 KHz
Bit depth                        : 16 bits
Stream size                      : 240 MiB (20%)
Alignment                        : Aligned on interleaves
Interleave, duration             : 42 ms (1.00 video frame)
Interleave, preload duration     : 512 ms

Screen : 
http://img846.imageshack.us/img846/8956/elimination2010s1.jpg 
http://img19.imageshack.us/img19/3708/elimination2010s2.jpg 
http://img192.imageshack.us/img192/8525/elimination2010s3.jpg 
http://img8.imageshack.us/img8/9855/elimination2010s4.jpg 
http://img577.imageshack.us/img577/3876/elimination2010s5.jpg